<svg xmlns="http://www.w3.org/2000/svg" viewBox="0 0 1200 800" font-family="'PingFang SC','Microsoft YaHei',sans-serif">
  <rect width="1200" height="800" fill="#0b0f17"/>
  <!-- 顶栏 -->
  <rect x="0" y="0" width="1200" height="64" fill="#111722"/>
  <circle cx="40" cy="32" r="14" fill="#f5b301"/>
  <text x="64" y="38" fill="#e6edf3" font-size="20" font-weight="700">哲思人物志</text>
  <text x="900" y="38" fill="#8b97a7" font-size="15">画廊</text>
  <text x="960" y="38" fill="#8b97a7" font-size="15">对比</text>
  <text x="1010" y="38" fill="#8b97a7" font-size="15">图谱</text>
  <text x="1060" y="38" fill="#8b97a7" font-size="15">时间轴</text>
  <!-- Hero -->
  <text x="60" y="150" fill="#e6edf3" font-size="40" font-weight="800">与 59 位中外思想家</text>
  <text x="60" y="205" fill="#e6edf3" font-size="40" font-weight="800">跨越时空对话</text>
  <text x="60" y="250" fill="#8b97a7" font-size="17">完整原著阅读 · 思想对比 · 影响图谱 · 最新资讯</text>
  <!-- 筛选条 -->
  <rect x="60" y="290" width="1080" height="48" rx="10" fill="#141a24" stroke="#2a3340"/>
  <text x="80" y="320" fill="#8b97a7" font-size="15">🔍 搜索思想家 / 流派 / 时代</text>
  <rect x="860" y="298" width="90" height="32" rx="8" fill="#1c2733" stroke="#2a3340"/>
  <text x="878" y="319" fill="#8b97a7" font-size="13">东方</text>
  <rect x="960" y="298" width="90" height="32" rx="8" fill="#1c2733" stroke="#2a3340"/>
  <text x="978" y="319" fill="#8b97a7" font-size="13">西方</text>
  <rect x="1060" y="298" width="60" height="32" rx="8" fill="#1c2733" stroke="#2a3340"/>
  <text x="1078" y="319" fill="#8b97a7" font-size="13">清除</text>
  <!-- 卡片网格 -->
  <g font-size="15">
    <!-- 卡片模板重复 -->
    <g transform="translate(60,370)">
      <rect width="190" height="180" rx="14" fill="#141a24" stroke="#2a3340"/>
      <circle cx="95" cy="55" r="34" fill="#1f2a38" stroke="#f5b301"/>
      <text x="95" y="62" fill="#f5b301" font-size="26" font-weight="700" text-anchor="middle">孔</text>
      <text x="95" y="115" fill="#e6edf3" font-size="17" font-weight="600" text-anchor="middle">孔子</text>
      <text x="95" y="138" fill="#8b97a7" font-size="12" text-anchor="middle">儒家 · 公元前551</text>
      <rect x="55" y="150" width="80" height="22" rx="6" fill="#1c2733"/>
      <text x="95" y="165" fill="#8b97a7" font-size="11" text-anchor="middle">读原著</text>
    </g>
    <g transform="translate(270,370)">
      <rect width="190" height="180" rx="14" fill="#141a24" stroke="#2a3340"/>
      <circle cx="95" cy="55" r="34" fill="#1f2a38" stroke="#4f9cf9"/>
      <text x="95" y="62" fill="#4f9cf9" font-size="26" font-weight="700" text-anchor="middle">老</text>
      <text x="95" y="115" fill="#e6edf3" font-size="17" font-weight="600" text-anchor="middle">老子</text>
      <text x="95" y="138" fill="#8b97a7" font-size="12" text-anchor="middle">道家 · 春秋</text>
      <rect x="55" y="150" width="80" height="22" rx="6" fill="#1c2733"/>
      <text x="95" y="165" fill="#8b97a7" font-size="11" text-anchor="middle">读原著</text>
    </g>
    <g transform="translate(480,370)">
      <rect width="190" height="180" rx="14" fill="#141a24" stroke="#2a3340"/>
      <circle cx="95" cy="55" r="34" fill="#1f2a38" stroke="#4f9cf9"/>
      <text x="95" y="62" fill="#4f9cf9" font-size="24" font-weight="700" text-anchor="middle">柏</text>
      <text x="95" y="115" fill="#e6edf3" font-size="17" font-weight="600" text-anchor="middle">柏拉图</text>
      <text x="95" y="138" fill="#8b97a7" font-size="12" text-anchor="middle">古希腊 · 前427</text>
      <rect x="55" y="150" width="80" height="22" rx="6" fill="#1c2733"/>
      <text x="95" y="165" fill="#8b97a7" font-size="11" text-anchor="middle">读原著</text>
    </g>
    <g transform="translate(690,370)">
      <rect width="190" height="180" rx="14" fill="#141a24" stroke="#2a3340"/>
      <circle cx="95" cy="55" r="34" fill="#1f2a38" stroke="#4f9cf9"/>
      <text x="95" y="62" fill="#4f9cf9" font-size="22" font-weight="700" text-anchor="middle">康</text>
      <text x="95" y="115" fill="#e6edf3" font-size="17" font-weight="600" text-anchor="middle">康德</text>
      <text x="95" y="138" fill="#8b97a7" font-size="12" text-anchor="middle">德国 · 1724</text>
      <rect x="55" y="150" width="80" height="22" rx="6" fill="#1c2733"/>
      <text x="95" y="165" fill="#8b97a7" font-size="11" text-anchor="middle">读原著</text>
    </g>
    <g transform="translate(900,370)">
      <rect width="190" height="180" rx="14" fill="#141a24" stroke="#2a3340"/>
      <circle cx="95" cy="55" r="34" fill="#1f2a38" stroke="#f5b301"/>
      <text x="95" y="62" fill="#f5b301" font-size="22" font-weight="700" text-anchor="middle">庄</text>
      <text x="95" y="115" fill="#e6edf3" font-size="17" font-weight="600" text-anchor="middle">庄子</text>
      <text x="95" y="138" fill="#8b97a7" font-size="12" text-anchor="middle">道家 · 战国</text>
      <rect x="55" y="150" width="80" height="22" rx="6" fill="#1c2733"/>
      <text x="95" y="165" fill="#8b97a7" font-size="11" text-anchor="middle">读原著</text>
    </g>
    <g transform="translate(60,570)">
      <rect width="190" height="180" rx="14" fill="#141a24" stroke="#2a3340"/>
      <circle cx="95" cy="55" r="34" fill="#1f2a38" stroke="#4f9cf9"/>
      <text x="95" y="62" fill="#4f9cf9" font-size="22" font-weight="700" text-anchor="middle">尼</text>
      <text x="95" y="115" fill="#e6edf3" font-size="17" font-weight="600" text-anchor="middle">尼采</text>
      <text x="95" y="138" fill="#8b97a7" font-size="12" text-anchor="middle">德国 · 1844</text>
      <rect x="55" y="150" width="80" height="22" rx="6" fill="#1c2733"/>
      <text x="95" y="165" fill="#8b97a7" font-size="11" text-anchor="middle">读原著</text>
    </g>
    <g transform="translate(270,570)">
      <rect width="190" height="180" rx="14" fill="#141a24" stroke="#2a3340"/>
      <circle cx="95" cy="55" r="34" fill="#1f2a38" stroke="#f5b301"/>
      <text x="95" y="62" fill="#f5b301" font-size="22" font-weight="700" text-anchor="middle">孟</text>
      <text x="95" y="115" fill="#e6edf3" font-size="17" font-weight="600" text-anchor="middle">孟子</text>
      <text x="95" y="138" fill="#8b97a7" font-size="12" text-anchor="middle">儒家 · 战国</text>
      <rect x="55" y="150" width="80" height="22" rx="6" fill="#1c2733"/>
      <text x="95" y="165" fill="#8b97a7" font-size="11" text-anchor="middle">读原著</text>
    </g>
    <g transform="translate(480,570)">
      <rect width="190" height="180" rx="14" fill="#1c2532" stroke="#f5b301"/>
      <circle cx="95" cy="55" r="34" fill="#1f2a38" stroke="#8b97a7"/>
      <text x="95" y="62" fill="#8b97a7" font-size="24" font-weight="700" text-anchor="middle">+53</text>
      <text x="95" y="115" fill="#8b97a7" font-size="15" font-weight="600" text-anchor="middle">更多思想家</text>
      <text x="95" y="138" fill="#5a6573" font-size="11" text-anchor="middle">点击展开画廊</text>
    </g>
  </g>
  <text x="60" y="785" fill="#5a6573" font-size="12">界面示意：首页画廊（实际为 React 应用，可在浏览器中交互）</text>
</svg>
